<?xml version="1.0" encoding="UTF-8" standalone="no"?>
<svg xmlns:inkscape="http://www.inkscape.org/namespaces/inkscape" xmlns:rdf="http://www.w3.org/1999/02/22-rdf-syntax-ns#" xmlns="http://www.w3.org/2000/svg" sodipodi:docname="ovirt-usb-stick.svg" inkscape:export-filename="./ovirt-usb-stick.png" height="58.5" width="108" inkscape:export-xdpi="1200" version="1.1" inkscape:export-ydpi="1200" xmlns:cc="http://creativecommons.org/ns#" xmlns:dc="http://purl.org/dc/elements/1.1/" inkscape:version="0.48.2 r9819" xmlns:sodipodi="http://sodipodi.sourceforge.net/DTD/sodipodi-0.dtd">
 <sodipodi:namedview fit-margin-left="0" inkscape:showpageshadow="false" inkscape:zoom="1.07" borderopacity="1.0" inkscape:current-layer="layer1" inkscape:cx="42.383179" inkscape:cy="-98.065424" inkscape:window-maximized="1" showgrid="false" fit-margin-right="0" units="in" inkscape:document-units="px" bordercolor="#666666" inkscape:window-x="1366" inkscape:window-y="27" fit-margin-bottom="0" inkscape:window-width="1920" inkscape:pageopacity="0.0" inkscape:pageshadow="2" pagecolor="#ffffff" inkscape:window-height="1020" fit-margin-top="0"/>
 <metadata>
  <rdf:RDF>
   <cc:Work rdf:about="">
    <dc:format>image/svg+xml</dc:format>
    <dc:type rdf:resource="http://purl.org/dc/dcmitype/StillImage"/>
    <dc:title/>
   </cc:Work>
  </rdf:RDF>
 </metadata>
 <g inkscape:label="Layer 1" inkscape:groupmode="layer" transform="translate(-262.62 -167.69)">
  <g transform="matrix(.36198 0 0 .36198 221.17 29.063)">
   <g>
    <path d="m183.44 448.74c-15.319 0-27.741 12.032-27.741 26.863s12.422 26.83 27.741 26.83 27.707-11.999 27.707-26.83-12.388-26.863-27.707-26.863zm0 4.2523c9.6827 0 17.515 10.137 17.515 22.611s-7.8325 22.577-17.515 22.577c-9.6827 0-17.549-10.104-17.549-22.577 0-12.474 7.8663-22.611 17.549-22.611z" inkscape:connector-curvature="0"/>
    <path d="m199.41 425.11 5.8044 3.9091c5.3244 12.262 10.419 24.624 15.281 37.077 4.5483 11.65 8.8927 23.38 13.03 35.182h7.2259l14.807-37.907c4.7268-12.101 9.6215-24.143 15.163-35.893l2.6061-2.3692h-7.5813l0.11845 0.59228c-3.6747 10.784-7.5851 21.489-11.727 32.102-4.1514 10.637-8.5358 21.183-13.149 31.628l-1.5399-0.23692c-3.7861-9.4232-7.5373-18.86-11.254-28.311-4.4328-11.274-8.8158-22.567-13.149-33.879l-0.11846-1.8953h-15.518" sodipodi:nodetypes="ccccccccccccccccc" inkscape:path-effect="#path-effect3109" inkscape:connector-curvature="0" inkscape:original-d="m 199.40597,425.11417 c 1.93482,1.30303 3.86963,2.60607 5.80444,3.90911 l 15.28109,37.07737 13.03039,35.18204 7.22594,0 14.80726,-37.90657 c 4.73832,-12.31963 12.20119,-29.9699 15.16264,-35.89279 l 2.60607,-2.36916 -7.58131,0 0.11845,0.59228 -11.72734,32.10214 -13.14886,31.6283 -1.53994,-0.23692 -11.25352,-28.31147 -13.14885,-33.87901 c -0.11846,-0.71075 -0.11846,-1.30304 -0.11846,-1.89532 l -15.518,0" stroke-width="0"/>
    <path d="m268.64 451.41c2.4809 2.1321 8.5254 4.421 8.6474 7.9367v41.934h9.7136v-51.885l-0.11846-0.5923-18.243 2.6061m20.221-18.486c0 3.5786-2.901 6.4796-6.4796 6.4796s-6.4796-2.901-6.4796-6.4796 2.901-6.4796 6.4796-6.4796 6.4796 2.901 6.4796 6.4796z" inkscape:connector-curvature="0" stroke-width="0"/>
    <path d="m311.12 448.81-16.703 2.6061c3.9091 2.7245 8.4105 5.4491 8.4105 7.9367v41.934h9.5951v-33.524c0-8.0551 4.7383-10.78 7.9367-10.78 2.0138 0 4.0276-0.35536 7.9367 1.4215 1.4215 1.1846 1.303 4.2645 1.7769 4.2645l4.8568-8.7659c0-2.2507-1.4215-5.0937-5.3306-5.0937-4.7383 0-8.6474 2.2507-17.176 8.4105l-1.303-8.4105" inkscape:connector-curvature="0" stroke-width="0"/>
    <path d="m371.66 454.25v-4.146h-15.992v-19.901h-1.7769c-1.4215 7.1075-3.4353 15.163-7.5813 19.901h-8.8844v4.146h8.8844v36.485c0 10.543 8.4105 11.727 12.083 11.727l12.32-5.3306h-5.9229c-4.7383 0-9.1213-2.4876-9.1213-10.424v-32.458h15.992" inkscape:connector-curvature="0" stroke-width="0"/>
   </g>
  </g>
 </g>
</svg>
